<?xml version="1.0" encoding="utf-8"?>
<!-- Generator: Adobe Illustrator 22.0.1, SVG Export Plug-In . SVG Version: 6.00 Build 0)  -->
<svg version="1.1" id="Layer_1" xmlns="http://www.w3.org/2000/svg" xmlns:xlink="http://www.w3.org/1999/xlink" x="0px" y="0px"
	 viewBox="0 0 360 360" style="enable-background:new 0 0 360 360;" xml:space="preserve">
<style type="text/css">
	.st0{fill:#65C7C2;}
	.st1{fill:#141F47;}
</style>
<g >
	<path class="st0" fill="#65C7C2" d="M162.1,227.5l-7.2-4.1c-2.2-1.2-3.7-3.4-4.2-5.8l-2.7-13.8c-3.6-6-7.6-17.2-7.6-17.2L118,225.7
		c-2.5,4.3,0.6,9.7,5.6,9.7h35.4c0.8,0,1.6-0.5,2-1.2l3.3-5.8C163.6,228.2,162.8,227.9,162.1,227.5z"/>
	<path class="st1" fill="#141F47" d="M185.7,127.8c-2.5-4.3-8.7-4.3-11.2,0l-27.9,48.4c0.8-1.1,2-2,3.4-2.3c9.1-2.4,27.4-5.6,41.6,2.6
		c7.3,4.2,12.5,10.8,16.2,17.5h14.8c0.8,0,1.4,0.3,1.8,0.9L185.7,127.8z"/>
	<path class="st0" fill="#65C7C2" d="M242.2,225.7l-17.5-30.3c0.3,0.8,0.2,1.7-0.5,2.5l-9.1,9.4l27.9,20.5C242.8,227.1,242.5,226.4,242.2,225.7z"/>
	<path class="st1" fill="#141F47" d="M176.9,201.8c-13-7.5-23.4-17-30.7-25l-0.5,0.9c-0.7,1.1-0.5,2.5-0.1,3.8c1.4,5.1,4,12.8,8.5,20l2.9,14.9
		c0.1,0.7,0.5,1.3,1.1,1.6l7.2,4.1c1.1,0.7,2.6,0.3,3.2-0.9l2.3-3.9c6.7,3.3,14.1,4.2,21,4.1l7.4,12.8c1,1.8,3.7,1.5,4.3-0.5
		l4.1-14.3c0.9-0.2,1.8-0.4,2.6-0.7c1.7-0.4,3-1.5,3.8-2.9C203.4,213.5,189.9,209.3,176.9,201.8z"/>
	<path class="st0" fill="#65C7C2" d="M238.7,235l-25.9-11.4l-3.3,11.7l27.1,0C237.3,235.4,238.1,235.3,238.7,235z"/>
</g>
</svg>
